<?xml version="1.0" encoding="UTF-8"?>
<svg id="Layer_2" data-name="Layer 2" xmlns="http://www.w3.org/2000/svg" viewBox="0 0 187.4 177.88">
  <defs>
    <style>
      .cls-1 {
        fill: #fbd23a;
      }
    </style>
  </defs>
  <g id="Layer_1-2" data-name="Layer 1">
    <path class="cls-1" d="M13.97,82.82c.21-.2-.05-1.3.32-1.75,7.24-8.8,10.27-23.4,20.23-32.49,2.53-2.31,6.28-1.69,6.77,1.78.39,2.74-5.25,8.22-7.05,10.85-7.32,10.66-12.97,21.69-16.79,34.1-1.54,4.99-6.88,19.78-1.92,23.09,8.62,5.75,10.38-11.39,12.12-16.46,2.66-7.77,14.76-37.02,21.71-39.98,3.33-1.42,6.35,1.6,4.98,4.99-1.25,3.1-6.71,9.61-8.89,13.37-8.29,14.32-12.69,29.12-14.95,45.27-.45,3.19-.62,12.14,2.87,13.6,1.97.82,7.77-.77,8.85-2.62,2.64-4.53,4.07-19.8,6.02-26.2,4.65-15.24,16.22-31.93,29.63-40.61,5.58-3.62,13.42-7.83,19.2-2.14,12.19,11.98-15.64,20.8-7.41,33.24,9.08,13.74,28.35-9.54,33.96-16.84,8.65-11.24,14.24-23.4,19.39-36.52,2.52-6.41,2.13-13.62,11.71-12.58,9.05.99,7.03,10.61,5.23,16.63-4.16,13.95-11.93,29.41-19.85,41.23-.58.87-5.35,8.13-5.61,8.55-.93,1.46-6.11,9.63-6.25,10.31-.86,4.15,3.84,4.76,6.85,1.79,6.69-6.61,17.56-26.32,22.13-35.22,3.56-6.92,7.26-25.1,18-19.99,9.05,4.31.24,19.3-2.74,25.94-4.48,9.95-10.01,20.05-16.01,29.15-2.04,3.1-8.5,10.24-9.5,12.71-2.08,5.08,2.41,7.47,6.44,3.58,3.83-3.7,9.13-12.52,12.09-17.3,2.88-4.67,6.34-13.05,9.11-16.69,4.35-5.71,12.98-3.26,12.82,3.45-.13,5.28-7.82,21.35-10.81,26.33-19.93,33.16-50.82,55.22-91.26,52.22-25.92-1.92-63.88-21.59-62.68-51.62-4.37,1.61-10.42.17-13.6-3.24-7.18-7.7,1-23.63,2.15-32.62-17.13-2.27-10.74-17.64-5.86-28.46C25.36,17.18,76.82-14.26,125.04,6.58c2.7,1.17,5.29,1.68,5.1,5.01-.36,6.2-8.94.83-12.24-.01C70.52-.5,32.48,22.13,11.98,64.75c-1.54,3.2-5.69,12.42-4.79,15.36.82,2.65,5.4,4.03,6.77,2.72Z"/>
  </g>
</svg>